<svg width="52" height="52" viewBox="0 0 52 52" fill="none" xmlns="http://www.w3.org/2000/svg"><path d="M51.29 44.962L41.162 34.836a2.436 2.436 0 00-1.726-.711H37.78a21.021 21.021 0 004.469-13C42.25 9.455 32.794 0 21.125 0 9.455 0 0 9.455 0 21.125S9.455 42.25 21.125 42.25c4.905 0 9.415-1.666 13-4.469v1.656c0 .65.254 1.27.71 1.726L44.963 51.29a2.427 2.427 0 003.443 0l2.874-2.874a2.449 2.449 0 00.01-3.453zM21.124 34.125c-7.18 0-13-5.81-13-13 0-7.18 5.81-13 13-13 7.18 0 13 5.81 13 13 0 7.18-5.81 13-13 13z" fill="#000"/></svg>