<svg xmlns="http://www.w3.org/2000/svg" xmlns:xlink="http://www.w3.org/1999/xlink" width="238" height="71" viewBox="0 0 238 71">
  <defs>
    <path id="arts-and-sciences-a" d="M25,24.3006993 L25,24.5804196 L18.5664336,24.5804196 L16.1888112,21.993007 C13.7412587,23.986014 11.6083916,25 8.46153846,25 C3.98601399,25 0,22.6923077 0,17.9020979 C0,14.4405594 2.69230769,12.3076923 5.8041958,10.979021 C4.65034965,9.68531469 3.32167832,8.11188811 3.32167832,5.76923077 C3.32167832,1.88811189 6.85314685,0 10.7342657,0 C14.5804196,0 17.8671329,1.88811189 17.8671329,5.62937063 C17.8671329,8.42657343 15.6643357,10.5594406 13.3216783,11.8181818 L16.5034965,15.4195804 C17.3863636,14.7465035 17.8671329,14.2001748 18.479021,13.2167832 L23.5314685,13.2167832 C22.7272727,14.5104895 20.8041958,17.3076923 19.5104895,18.6013986 L25,24.3006993 Z M13.1118881,5.8041958 C13.1118881,4.47552448 12.2027972,3.74125874 10.8391608,3.74125874 C9.44055944,3.74125874 8.4965035,4.54545455 8.4965035,5.87412587 C8.4965035,6.92307692 9.26573427,7.69230769 9.65034965,8.14685315 L10.4545455,9.02097902 C11.5034965,8.35664336 13.1118881,7.34265734 13.1118881,5.8041958 Z M13.1818182,18.8111888 L8.70629371,13.8811189 L8.00699301,14.2657343 C6.88811189,14.8951049 5.45454545,15.8741259 5.45454545,17.7272727 C5.45454545,19.6153846 7.02797203,20.8391608 8.84615385,20.8391608 C10.6293706,20.8391608 12.2727273,19.8251748 13.1818182,18.8111888 Z"/>
  </defs>
  <g fill="none" fill-rule="evenodd">
    <text fill="#2C2C2C" font-family="Gibson-SemiBold, Gibson" font-size="36" font-weight="500">
      <tspan x="96" y="64">Sciences</tspan>
    </text>
    <text fill="#2C2C2C" font-family="Gibson-SemiBold, Gibson" font-size="36" font-weight="500">
      <tspan x="1" y="64">Arts</tspan> <tspan x="68.536" y="64" letter-spacing="-2.3"> </tspan>
    </text>
    <text fill="#999" font-family="Gibson-Regular, Gibson" font-size="28">
      <tspan x="0" y="28">The College of</tspan>
    </text>
    <g transform="translate(71 40)">
      <mask id="arts-and-sciences-b" fill="#fff">
        <use xlink:href="#arts-and-sciences-a"/>
      </mask>
      <g fill="#B31B1B" mask="url(#arts-and-sciences-b)">
        <rect width="40" height="40" transform="translate(-8 -8)"/>
      </g>
    </g>
  </g>
</svg>
