<svg width="238" height="71" viewBox="0 0 238 71" fill="none" xmlns="http://www.w3.org/2000/svg"><g id="college"><g id="Group"><g id="College"><path d="M115.044 56.44c0-2.232-.9-3.744-1.944-4.788-1.116-1.116-2.772-1.764-3.456-2.016-.792-.324-2.628-.972-3.708-1.404-1.116-.432-2.52-1.008-2.52-2.52s1.368-2.232 3.24-2.232 4.104 1.08 5.544 2.52l2.484-4.068c-1.692-1.692-5.004-3.06-7.884-3.06-2.88 0-5.148.792-6.552 1.98-1.44 1.188-2.592 3.06-2.592 5.436 0 2.34.864 3.78 1.944 4.788 1.08 1.044 2.34 1.512 2.952 1.8.828.36 2.7 1.008 3.78 1.404 1.08.396 2.916 1.044 2.916 2.736 0 1.656-1.44 2.556-3.312 2.556-1.908 0-4.68-1.26-6.48-3.132l-2.88 4.248c2.016 1.872 5.22 3.744 8.82 3.744 2.664 0 4.968-.648 6.732-2.052a7.523 7.523 0 002.916-5.94zm16.443 1.476s-1.8 1.728-4.5 1.728-4.464-1.764-4.464-4.572 1.944-4.5 4.392-4.5a7.298 7.298 0 014.572 1.584l1.26-4.356s-2.052-1.872-6.588-1.872c-4.86 0-9.432 3.312-9.432 9.252 0 5.904 4.5 9.216 9.36 9.216 4.716 0 6.588-1.98 6.768-2.124l-1.368-4.356zm9.88-16.704c0-1.764-1.332-2.988-3.276-2.988-1.944 0-3.276 1.224-3.276 2.988 0 1.8 1.332 2.988 3.276 2.988 1.944 0 3.276-1.188 3.276-2.988zm-.396 5.04h-5.76V64h5.76V46.252zm21.295 8.352c0-5.184-3.636-8.676-8.892-8.676-5.256 0-9.576 3.348-9.576 9.216 0 5.868 3.996 9.252 9.468 9.252 5.508 0 7.848-2.448 8.424-2.88l-2.268-2.988c-1.008.684-3.024 1.692-5.328 1.692-2.34 0-4.284-1.152-4.536-3.708h12.636s.072-1.044.072-1.908zm-12.672-1.368c.072-1.692 1.296-3.564 3.672-3.564 2.412 0 3.6 1.944 3.636 3.564h-7.308zm32.746.288c0-4.284-1.332-7.596-6.48-7.596-2.556 0-4.176 1.296-5.148 2.88h-.072l.036-2.556h-5.76V64h5.76v-8.784c0-2.556.684-4.572 3.168-4.572 2.376 0 2.736 1.764 2.736 4.104V64h5.76V53.524zm17.421 4.392s-1.8 1.728-4.5 1.728-4.464-1.764-4.464-4.572 1.944-4.5 4.392-4.5a7.298 7.298 0 014.572 1.584l1.26-4.356s-2.052-1.872-6.588-1.872c-4.86 0-9.432 3.312-9.432 9.252 0 5.904 4.5 9.216 9.36 9.216 4.716 0 6.588-1.98 6.768-2.124l-1.368-4.356zm21.075-3.312c0-5.184-3.636-8.676-8.892-8.676-5.256 0-9.576 3.348-9.576 9.216 0 5.868 3.996 9.252 9.468 9.252 5.508 0 7.848-2.448 8.424-2.88l-2.268-2.988c-1.008.684-3.024 1.692-5.328 1.692-2.34 0-4.284-1.152-4.536-3.708h12.636s.072-1.044.072-1.908zm-12.672-1.368c.072-1.692 1.296-3.564 3.672-3.564 2.412 0 3.6 1.944 3.636 3.564h-7.308zm28.858 5.292c0-1.872-.864-3.024-1.44-3.6-.612-.576-1.512-1.044-2.304-1.332-.756-.288-1.296-.468-2.52-.828-1.224-.36-2.592-.792-2.592-1.728 0-.936.756-1.296 2.124-1.296 1.44 0 3.456.936 4.464 1.728l1.872-3.384c-1.008-.828-3.096-2.196-6.804-2.196s-6.732 2.124-6.732 5.58c0 3.168 2.196 4.284 3.024 4.644.828.36 1.836.648 2.52.828.648.216 3.24.792 3.24 1.944s-1.008 1.512-2.448 1.512-3.816-.936-5.256-2.16l-2.16 3.42c2.016 1.908 4.824 2.736 7.488 2.736 2.376 0 4.14-.54 5.436-1.548 1.296-1.044 2.088-2.484 2.088-4.32z" id="Sciences" fill="#2C2C2C"/><path d="M16.264 39.124h-6.048L.856 64h6.048l1.764-5.004h8.856L19.288 64h6.336l-9.36-24.876zM10 54.46l3.096-8.928 3.096 8.928H10zm29.365-8.208s-.612-.324-1.8-.324c-1.908 0-3.384.9-4.392 2.844H33.1l.036-2.52h-5.76V64h5.76v-7.884c0-1.98.468-3.132.9-3.708a3.381 3.381 0 012.664-1.296c1.008 0 1.764.252 2.088.432h.252l.324-5.292zm12.518.036h-3.924v-4.824h-5.796v4.824h-2.52v4.356h2.52v6.876c0 2.7.36 4.176 1.26 5.22.9 1.044 2.268 1.656 4.32 1.656 2.088 0 3.672-.468 4.104-.576l-.288-4.5s-.828.324-1.728.324c-.756 0-1.116-.144-1.368-.432-.288-.324-.504-.684-.504-2.196v-6.372h3.924v-4.356zm15.854 12.24c0-1.872-.864-3.024-1.44-3.6-.612-.576-1.512-1.044-2.304-1.332-.756-.288-1.296-.468-2.52-.828-1.224-.36-2.592-.792-2.592-1.728 0-.936.756-1.296 2.124-1.296 1.44 0 3.456.936 4.464 1.728l1.872-3.384c-1.008-.828-3.096-2.196-6.804-2.196s-6.732 2.124-6.732 5.58c0 3.168 2.196 4.284 3.024 4.644.828.36 1.836.648 2.52.828.648.216 3.24.792 3.24 1.944S61.581 60.4 60.141 60.4s-3.816-.936-5.256-2.16l-2.16 3.42c2.016 1.908 4.824 2.736 7.488 2.736 2.376 0 4.14-.54 5.436-1.548 1.296-1.044 2.088-2.484 2.088-4.32z" id="Arts" fill="#2C2C2C"/><path d="M13.272 8.68H.28v1.372h5.74V28h1.512V10.052h5.74V8.68zM26.05 20.244c0-3.08-.867-5.46-4.591-5.46-1.877 0-3.556 1.092-4.2 2.632V8.68h-1.457V28h1.457v-6.44c0-3.08 1.343-5.516 4.143-5.516s3.165 2.156 3.165 4.256V28h1.483v-7.756zm15.414.616c0-3.5-2.464-6.076-5.88-6.076-3.444 0-6.3 2.716-6.3 6.72 0 3.976 2.436 6.776 6.216 6.776 3.78 0 5.404-1.96 5.404-1.96l-.7-1.036s-1.624 1.68-4.564 1.68-4.676-2.044-4.816-5.124H41.38s.084-.56.084-.98zm-10.584-.28c.084-1.82 1.4-4.536 4.62-4.536s4.48 2.856 4.48 4.536h-9.1zm34.243 3.78c-1.4 1.54-3.5 2.548-6.16 2.548-4.76 0-8.12-3.556-8.12-8.596s3.36-8.54 8.12-8.54c2.8 0 5.04 1.288 6.02 2.548l.98-1.12c-1.4-1.4-3.64-2.8-7-2.8-5.46 0-9.744 4.088-9.744 9.968s4.144 9.968 9.744 9.968c3.5 0 5.74-1.456 7.14-2.996l-.98-.98zm16.235-2.8c0-3.92-2.94-6.776-6.665-6.776-3.695 0-6.635 2.856-6.635 6.776s2.94 6.72 6.635 6.72c3.725 0 6.665-2.8 6.665-6.72zm-1.54-.056c0 2.996-1.96 5.46-5.124 5.46-3.136 0-5.097-2.464-5.097-5.46 0-3.024 1.96-5.46 5.097-5.46 3.163 0 5.123 2.436 5.123 5.46zM86.165 8.68h-1.456V28h1.456V8.68zm5.933 0h-1.456V28h1.456V8.68zm15.538 12.18c0-3.5-2.464-6.076-5.88-6.076-3.444 0-6.3 2.716-6.3 6.72 0 3.976 2.436 6.776 6.216 6.776 3.78 0 5.404-1.96 5.404-1.96l-.7-1.036s-1.624 1.68-4.564 1.68-4.676-2.044-4.816-5.124h10.556s.084-.56.084-.98zm-10.584-.28c.084-1.82 1.4-4.536 4.62-4.536s4.48 2.856 4.48 4.536h-9.1zm25.417-5.572h-1.484v2.464c-.868-1.54-2.576-2.688-4.9-2.688-3.416 0-6.356 2.548-6.356 6.608S112.669 28 116.085 28c2.324 0 3.948-1.092 4.9-2.772v.952c0 2.24-.56 3.64-1.12 4.424-.56.756-1.82 1.68-3.92 1.68-2.1 0-4.06-1.064-4.76-1.764l-.84 1.12s2.1 1.96 5.46 1.96 4.9-1.68 5.6-2.8c.7-1.12 1.064-2.66 1.064-5.6V15.008zm-1.4 6.356c0 2.94-1.68 5.32-4.9 5.32-3.22 0-4.9-2.38-4.9-5.32 0-2.94 1.68-5.292 4.9-5.292 3.22 0 4.9 2.352 4.9 5.292zm16.809-.504c0-3.5-2.464-6.076-5.88-6.076-3.444 0-6.3 2.716-6.3 6.72 0 3.976 2.436 6.776 6.216 6.776 3.78 0 5.404-1.96 5.404-1.96l-.7-1.036s-1.624 1.68-4.564 1.68-4.676-2.044-4.816-5.124h10.556s.084-.56.084-.98zm-10.584-.28c.084-1.82 1.4-4.536 4.62-4.536s4.48 2.856 4.48 4.536h-9.1zm31.583.98c0-3.92-2.94-6.776-6.664-6.776-3.696 0-6.636 2.856-6.636 6.776s2.94 6.72 6.636 6.72c3.724 0 6.664-2.8 6.664-6.72zm-1.54-.056c0 2.996-1.96 5.46-5.124 5.46-3.136 0-5.096-2.464-5.096-5.46 0-3.024 1.96-5.46 5.096-5.46 3.164 0 5.124 2.436 5.124 5.46zM167.828 8.68s-.42-.28-1.82-.28c-1.4 0-2.324.84-2.744 1.484-.42.616-.756 1.596-.756 3.416v1.764h-1.96v1.316h1.96V28h1.456V16.38h3.304v-1.316h-3.304V13.16c0-1.82.224-3.5 2.324-3.5.7 0 1.4.28 1.4.28l.14-1.26z" id="The College of" fill="#999"/></g></g><g id="&amp;/semi"><path id="&amp;" d="M96.32 63.584l-5.78-6c1.363-1.363 4.15-4.038 4.74-5.67h-5.432c-.545 1.183-.993 1.632-2.473 2.32l-3.35-3.792c2.466-1.325 4.785-3.57 4.785-6.516 0-3.938-3.46-5.926-7.509-5.926-4.086 0-7.804 1.988-7.804 6.074 0 2.466 1.399 4.123 2.614 5.485C72.835 50.958 70 53.203 70 56.847c0 5.043 4.197 7.473 8.908 7.473 3.313 0 5.559-1.068 8.136-3.166l2.503 2.724h6.773v-.294zM83.804 44.11c0 1.62-1.693 2.687-2.797 3.386l-.847-.92c-.405-.479-1.215-1.288-1.215-2.393 0-1.399.994-2.245 2.467-2.245 1.435 0 2.392.773 2.392 2.172zm.074 13.693c-.957 1.068-2.687 2.135-4.565 2.135-1.914 0-3.57-1.288-3.57-3.276 0-1.95 1.509-2.981 2.687-3.644l.736-.405 4.712 5.19z" fill="#B31414"/></g></g></svg>