<svg height="100" viewBox="0 0 100 100" width="100" xmlns="http://www.w3.org/2000/svg"><path d="M38.424 76.185c5.666 4.454 11.249 6.81 11.484 6.906l.432.182.435-.185c.233-.103 5.795-2.489 11.444-6.897 7.604-5.933 11.627-12.687 11.627-19.54l-.005-31.324-47.057.005-.003 30.777c0 7.137 4.025 14.075 11.643 20.076zm10.845-9.603a2.505 2.505 0 00-.844-.144h-.054c-1.144 0-2 .078-2.91.158a40.05 40.05 0 01-4.803.197v-14.73h.194c.566.005 1.261 0 2.136-.016.736-.02 1.549-.108 2.488-.206a82.52 82.52 0 011.682-.17c.976-.104 1.88.07 1.88.07l.23.075zm22.347-9.93c0 12.824-15.792 21.515-20.442 23.793V68.78l.235-.243c.232-.269.379-.429.823-.432a34.92 34.92 0 012.806.152c.882.079 1.88.172 3.298.202a31.497 31.497 0 002.536-.03l.79-.043v-4.357h1.853v-2.323h-1.852v-4.22h1.852v-2.322H61.66v-4.74l-.814-.018c-.3-.01-.643-.01-1.049-.006-.567-.008-1.24 0-2.095-.022-.667-.014-1.448-.095-2.351-.192a75.54 75.54 0 00-1.676-.168 8.167 8.167 0 00-2.445.1l-.056.016v-4.476h20.44zM51.174 66.656V51.889c.11-.051.238-.103.413-.142a6.715 6.715 0 011.921-.072c.597.052 1.15.109 1.669.169.937.095 1.748.183 2.485.203.743.017 1.36.017 1.88.017h.447l.003 14.729c-.424.007-.987.018-1.615 0a40.881 40.881 0 01-3.188-.196c-.919-.084-1.744-.163-2.962-.16-.43 0-.766.093-1.053.219zm-22.166-39.1l42.605-.007.002 15.884H29.007zm-.001 18.101h20.262v4.433a8.344 8.344 0 00-2.278-.076c-.604.054-1.164.114-1.688.171-.906.097-1.687.178-2.356.192-.854.022-1.535.022-2.095.022-.404 0-.75 0-1.051.006l-.816.018v4.28h-2.003v2.327h2.003v4.279h-2.003v2.318h2.003v4.759l.79.043c.044.004 1.131.06 2.537.029 1.419-.03 2.416-.123 3.298-.202.908-.08 1.693-.152 2.761-.152.421-.006.56.126.788.41l.11.125v11.705c-4.914-2.41-20.262-11-20.262-24.235z"/><path d="M46.796 29.145h-11.89v.83c-.003 2.59-.005 6.97.01 7.17.057.897.651 1.709 1.818 2.482 1.436.961 3.575 2.211 3.665 2.265l.408.238.412-.226c.097-.05 2.407-1.308 3.848-2.277 1.687-1.119 1.716-2.143 1.729-2.483.012-.183.007-4 0-7.169zM36.58 30.808h8.549l.002 2.159h-8.554c0-.721 0-1.465.003-2.159zm8.546 6.289c-.012.415-.544.853-.988 1.147-1.024.687-2.57 1.563-3.303 1.97-.697-.415-2.143-1.283-3.168-1.97-.67-.445-1.066-.883-1.087-1.209-.003-.121-.003-1.11-.003-2.401h8.553c0 1.3-.001 2.306-.004 2.463zm21.904-8.306H54.873v.832c-.002 3.255-.002 7.168.01 7.37.068.905.674 1.733 1.863 2.52 1.466.986 3.66 2.268 3.751 2.322l.407.238.415-.227c.097-.05 2.47-1.336 3.951-2.332 1.729-1.149 1.755-2.193 1.76-2.537.014-.186.009-4.102.001-7.356zm-1.67 8.149c-.01.43-.56.882-1.019 1.196-1.059.703-2.66 1.605-3.408 2.02a88.117 88.117 0 01-3.258-2.02c-.325-.22-1.09-.781-1.123-1.269-.003-.044-.003-.2-.006-.438l4.214-3.032 4.604 3.06c0 .255-.002.426-.004.483zm-4.637-5.575l-4.18 3.012a825.487 825.487 0 010-3.92h8.817c.003 1.303.007 2.78.007 4.001zm-7.378 23.821l.794.082c.54.061 1.007.106 1.414.118l2.46.07.037-1.67-2.454-.07c-.37-.004-.786-.052-1.278-.103l-.811-.082a4.272 4.272 0 00-.618-.019l.072 1.662c.117-.004.244 0 .384.012zm2.262 3.149c-.349-.01-.751-.054-1.21-.101a25.008 25.008 0 00-.868-.088c-.215-.023-.418-.026-.603-.023l.027 1.666c.12-.003.252 0 .407.016.309.028.594.058.86.084.511.056.958.1 1.348.113.512.006 1.261.03 1.816.041l.645.019.035-1.664-.638-.018c-.556-.014-1.307-.037-1.82-.045zm-.011 4.758c-.36-.012-.766-.055-1.232-.109-.274-.027-.56-.057-.846-.084a4.412 4.412 0 00-.617-.023l.052 1.662c.113 0 .242 0 .395.018.293.028.574.06.833.083.522.062.974.103 1.372.116l.694.018 1.77.045.029-1.67c-.276-.006-1.056-.022-1.755-.042zm-10.552-7.727c.406-.009.873-.058 1.412-.12.253-.024.518-.052.8-.083l.38-.012.026-1.67c-.17 0-.362.008-.56.026-.296.027-.569.059-.824.087-.485.05-.9.1-1.272.106l-2.455.06.039 1.67zm1.247 2.834c-.484.054-.904.101-1.271.109l-2.458.066.04 1.668 2.456-.064c.41-.011.874-.062 1.415-.12l.784-.082.365-.01.075-1.666c-.172-.009-.373 0-.582.019zm-.011 4.757c-.485.05-.904.101-1.355.107-.775.022-2.009.059-2.37.068l.03 1.665c.364-.01 1.603-.043 2.462-.063.406-.01.871-.063 1.416-.123l.809-.078.36-.014.028-1.667c-.177-.003-.373 0-.558.019zM7.928 50.073c2.092 0 3.372-1.333 3.526-3.649a6.71 6.71 0 00-.123-1.577l-.04-.205-1.726-.015.164.355c.123.272.195.855.168 1.342-.079 1.206-.989 1.94-2.268 1.853-1.301-.081-2.13-.922-2.057-2.099.023-.38.091-.802.407-1.274l.214-.332-1.7-.25-.08.17a4.582 4.582 0 00-.395 1.562c-.148 2.42 1.193 3.959 3.59 4.108zm.274-8.178a5 5 0 001.339.197c1.588 0 2.76-.924 3.219-2.535.274-.963.197-1.873-.225-2.626-.461-.834-1.3-1.429-2.418-1.744a4.697 4.697 0 00-1.289-.189c-1.597 0-2.773.92-3.228 2.53-.594 2.07.405 3.74 2.602 4.367zM7.098 37.95c.252-.9 1.018-1.087 1.615-1.087.283 0 .59.048.89.13.73.21 1.302.59 1.558 1.05.18.322.214.685.103 1.09-.259.9-1.013 1.086-1.599 1.086a3.46 3.46 0 01-.95-.141c-.949-.27-1.943-.987-1.617-2.128zm8.302-5.406l-2.461-1.313.078-.15c.233-.439.41-.402.791-.354l2.4.303.949-1.784-3.192-.332a2.11 2.11 0 00-.622.036 1.785 1.785 0 00-.972-1.66c-.36-.19-.71-.287-1.033-.287-1.164 0-1.785 1.172-2.332 2.208l-.835 1.564 6.37 3.385zm-3.75-2.201l-.093.162-1.155-.616.088-.161c.29-.536.602-.981 1.096-.722.175.097.276.205.323.343.09.29-.108.706-.26.994zm7.728-4.056l-3.271-2.71 4.644 1.055 1.293-1.552-5.556-4.599-1.129 1.367 3.273 2.707-4.637-1.071-1.302 1.568 5.555 4.59zm8.029-7.781l-.984-1.207-2.012 1.634-.876-1.073 1.838-1.487-.993-1.205-1.83 1.488-.726-.895 2-1.622-.986-1.207-3.416 2.777 4.553 5.583zM33.4 14.94l-.773-1.362-2.234 1.255-2.775-4.912-1.598.9 3.537 6.266zm6.057-2.317l-.535-1.459-2.411.87-1.928-5.3-1.723.622 2.454 6.762zm7.265-1.19c.143 0 .291-.007.44-.023.998-.084 1.734-.395 2.188-.927.426-.509.605-1.211.53-2.088l-.374-4.515-1.824.147.34 4.107c.121 1.45-.46 1.683-.981 1.733l-.136.004c-.427 0-1.011-.161-1.127-1.551l-.336-4.105-1.826.15.377 4.516c.137 1.668 1.077 2.552 2.729 2.552zm8.26-4.295l1.558 4.494 2.01.27.968-7.132-1.756-.237-.569 4.208-1.557-4.494-2.014-.272-.965 7.134 1.756.238zm9.954-.829l-1.745-.55-2.162 6.874 1.745.542zm9.042 4.043l-1.646-.825-3.482 3.531.773-4.893-1.745-.887-1.072 7.529 1.776.891zm1.807 10.289l.962-1.219-2.05-1.599.854-1.093 1.86 1.454.958-1.225-1.86-1.454.71-.906 2.032 1.584.964-1.221-3.472-2.71-4.444 5.668zm2.988 3.019l2.096-1.833.114.135c.27.306.277.435.055.864l-1.133 2.13 1.337 1.517 1.443-2.87c.05-.104.152-.327.188-.583.616.269 1.36.147 1.898-.32 1.554-1.362.311-2.777-.596-3.807l-1.187-1.348-5.427 4.747zm4.246-3.715l.127.14c.256.298.524.631.5.908l-.212.366-.4.178c-.31 0-.628-.316-.872-.591l-.122-.14zm2.478 9.474c-.353.207-.797-.146-1-.485-.224-.381-.354-.86-.37-1.377l-.013-.375-1.653.759.117.369c.164.555.265.892.615 1.484.588.988 1.368 1.536 2.197 1.536a2.2 2.2 0 001.158-.35c1.28-.75 1.08-1.946.935-2.82-.104-.619-.15-1.002.106-1.154l.362-.109c.33 0 .55.314.632.446.208.354.347.775.404 1.207l.043.334 1.502-.678-.04-.197c-.105-.51-.311-1.018-.629-1.558-.786-1.317-2.078-1.745-3.28-1.033-1.236.727-1.057 1.897-.923 2.747.108.677.153 1.069-.163 1.253zm.828 6.515l6.68-2.721-.69-1.687-6.68 2.719zm6.706 2.363l-5.493 1.347.436 1.776 5.494-1.353.455 1.843 1.512-.372-1.344-5.448-1.52.367zm-4.227 8.721l.103 1.823 2.834-.158 4.511 2.308-.105-1.98-2.635-1.303 2.474-1.548-.118-2.139-4.23 2.84zM9.334 63.492l1.497-.434-.627-2.17 1.105-.319.663 2.283 1.495-.433-1.168-4.044-6.94 1.993.518 1.763 2.828-.816zm6.429 5.965c.28-.83.193-1.753-.265-2.672-.638-1.298-1.698-2.011-2.966-2.011-.614 0-1.257.163-1.91.483-1.057.516-1.774 1.256-2.071 2.138-.284.823-.19 1.745.268 2.666.635 1.286 1.697 1.996 2.996 1.996.62 0 1.267-.163 1.914-.478 1.027-.506 1.729-1.238 2.034-2.122zm-2.87.417c-.462.227-.913.344-1.316.344-.629 0-1.082-.286-1.361-.844-.187-.383-.224-.753-.1-1.109.17-.495.66-.97 1.344-1.305.426-.207.865-.321 1.264-.321.64 0 1.106.281 1.374.835.186.378.216.75.092 1.11-.17.502-.645.976-1.298 1.29zm7.841 5.158l-3.23 2.564c-.871.694-1.494.757-1.997.126-.205-.258-.291-.507-.259-.758.043-.356.327-.74.845-1.153l3.227-2.558-1.149-1.438-3.555 2.814c-.739.587-1.135 1.242-1.163 1.957-.035.66.25 1.373.84 2.105.7.881 1.45 1.325 2.24 1.325.585 0 1.187-.243 1.792-.724l3.559-2.821zm6.139 5.856l-2.698 3.284 1.028-4.65-1.595-1.295-4.575 5.567 1.388 1.12 2.698-3.288-1.015 4.67 1.575 1.288 4.574-5.569zm5.33 3.404l-1.86-.93-3.246 6.431 1.859.929c.896.449 1.676.664 2.393.664 1.247 0 2.228-.681 2.909-2.034 1.076-2.133.387-3.835-2.055-5.06zm.353 4.203c-.372.75-1.018 1.169-1.772 1.169a2.01 2.01 0 01-.89-.212l-.445-.22 1.843-3.658.442.225c.464.232.822.638.982 1.117.162.502.108 1.049-.16 1.58zm3.629 5.292l4.319 1.147.399-1.497-2.538-.68.353-1.333 2.308.615.406-1.499-2.308-.618.294-1.111 2.518.667.407-1.5-4.303-1.146zm10.645-5.249l-2.085-.12-.4 7.187 2.073.12c.16.009.314.01.475.01 2.417 0 3.71-1.134 3.839-3.371.06-1.112-.193-1.991-.759-2.625-.653-.724-1.683-1.12-3.143-1.2zm-.064 5.646l-.496-.025.237-4.079.488.025c.97.05 1.916.812 1.842 2.146-.082 1.386-1.132 1.987-2.07 1.933zm10.319-6.191l-1.225 7.62 1.887-.407.25-1.614 2.317-.506.882 1.389 1.98-.43-4.275-6.438zm1.137 3.957l.23-1.879.986 1.618zm5.723-.238l.624 1.73 1.738-.625-.634-1.732zm3.515-7.282l-1.835.986 3.446 6.33 1.825-.99c2.4-1.295 3.04-3.017 1.9-5.116-1.13-2.084-2.942-2.512-5.336-1.21zm2.923 4.836l-.433.236-1.954-3.588.438-.238c.288-.159.617-.245.944-.245.729 0 1.367.412 1.75 1.107.635 1.178.108 2.266-.745 2.728zm3.788-2.569l1.06 1.514 1.515-1.052-1.053-1.514zm2.882-9.213l-.321 2.826 1.585.217.132-1.181 3.443 3.487 1.315-1.295-5.067-5.125zm9.777-3.768c-.598-.441-1.275-.514-2.022-.225a2.034 2.034 0 00-.797-1.64c-.9-.658-2.1-.288-2.98.898-.872 1.174-.793 2.363.21 3.107.5.367 1.15.452 1.775.23-.046.786.207 1.372.768 1.781.402.3.825.449 1.255.449.726 0 1.45-.441 2.05-1.244.503-.686.727-1.373.63-1.99-.078-.534-.377-.988-.888-1.366zm-3.428.526c-.256.16-.526.3-.764.3l-.303-.093c-.353-.267-.178-.702-.019-.915.12-.166.27-.247.441-.247l.381.14c.217.163.311.538.264.815zm2.477 1.94c-.243.329-.704.426-1.017.197-.29-.216-.38-.508-.304-.997.518-.336.897-.393 1.222-.152a.63.63 0 01.263.41c.026.171-.033.365-.164.542zm4.225-9.502c-1.25-.624-2.44-.255-3.04.944-.167.34-.237.668-.204.99-.449-.367-.856-.939-.501-1.641.177-.36.411-.599.7-.85l.243-.207-1.327-.951-.15.147c-.37.358-.661.76-.888 1.216-.358.717-.425 1.409-.202 2.076.392 1.165 1.577 1.957 2.502 2.417.805.406 1.494.6 2.094.6.916 0 1.605-.453 2.054-1.347.7-1.396.231-2.634-1.281-3.394zm-.064 2.723c-.115.237-.296.352-.553.352a1.33 1.33 0 01-.59-.163c-.355-.176-.597-.395-.665-.62a.518.518 0 01.038-.411c.11-.215.286-.32.543-.32.196 0 .424.061.658.178.307.154.53.37.603.59zm2.621-9.99c-1.443-.43-2.605.22-3.014 1.603l-.085.352-.846-.269.737-2.475-1.442-.424-1.235 4.157 4 1.268-.003-.35a3.745 3.745 0 01.159-1.124c.103-.344.473-1.195 1.245-.966.82.246.63 1.127.555 1.393-.143.486-.43.837-.669 1.126l-.231.281 1.684.554.101-.183a7.283 7.283 0 00.652-1.492c.253-.84.22-1.615-.095-2.24-.296-.58-.831-1.01-1.513-1.211z"/><path d="M13.763 49.804c0 20.004 16.312 36.271 36.367 36.271 20.054 0 36.367-16.267 36.367-36.271 0-19.995-16.313-36.264-36.367-36.264-20.055 0-36.367 16.27-36.367 36.264zM50.13 14.797c19.359 0 35.11 15.708 35.11 35.007 0 19.309-15.751 35.014-35.11 35.014-19.363 0-35.11-15.705-35.11-35.014 0-19.298 15.747-35.007 35.11-35.007z"/><path d="M50.13.207C22.704.207.39 22.457.39 49.81c0 27.344 22.314 49.598 49.74 49.598 27.428 0 49.74-22.254 49.74-49.598C99.87 22.457 77.557.207 50.13.207zm0 97.907c-26.71 0-48.439-21.668-48.439-48.304 0-26.635 21.729-48.307 48.44-48.307 26.71 0 48.44 21.672 48.44 48.307 0 26.636-21.73 48.304-48.44 48.304z"/></svg>