<svg xmlns="http://www.w3.org/2000/svg" xmlns:xlink="http://www.w3.org/1999/xlink"><symbol viewBox="0 0 34 34" id="burger" xmlns="http://www.w3.org/2000/svg"><path d="M0 2a2 2 0 012-2h30a2 2 0 012 2v3.23H0V2zM0 9h34v6H0zM0 19h34v6H0zM0 28.77h34V32a2 2 0 01-2 2H2a2 2 0 01-2-2v-3.23z"/></symbol><symbol viewBox="0 0 52 32" id="chevron-down" xmlns="http://www.w3.org/2000/svg"><path d="M24.03 30.704L1.473 7.93a2.832 2.832 0 010-3.977l2.63-2.656a2.767 2.767 0 013.935-.005L26 19.341 43.962 1.29a2.767 2.767 0 013.934.005l2.631 2.656a2.831 2.831 0 010 3.977L27.97 30.704a2.767 2.767 0 01-3.94 0z"/></symbol><symbol fill="none" viewBox="0 0 52 52" id="search" xmlns="http://www.w3.org/2000/svg"><path d="M51.29 44.962L41.162 34.836a2.436 2.436 0 00-1.726-.711H37.78a21.021 21.021 0 004.469-13C42.25 9.455 32.794 0 21.125 0 9.455 0 0 9.455 0 21.125S9.455 42.25 21.125 42.25c4.905 0 9.415-1.666 13-4.469v1.656c0 .65.254 1.27.71 1.726L44.963 51.29a2.427 2.427 0 003.443 0l2.874-2.874a2.449 2.449 0 00.01-3.453zM21.124 34.125c-7.18 0-13-5.81-13-13 0-7.18 5.81-13 13-13 7.18 0 13 5.81 13 13 0 7.18-5.81 13-13 13z" fill="#000"/></symbol></svg>